<svg width="18" height="18" viewBox="0 0 18 18" fill="none" xmlns="http://www.w3.org/2000/svg">
<path d="M7.5 6.00018C10.3995 6.00018 12.75 4.99283 12.75 3.75018C12.75 2.50755 10.3995 1.50018 7.5 1.50018C4.60051 1.50018 2.25 2.50755 2.25 3.75018C2.25 4.99283 4.60051 6.00018 7.5 6.00018Z" stroke="#8B8890" stroke-linecap="round" stroke-linejoin="round"/>
<path d="M7.5 10.5002C4.60051 10.5002 2.25 9.49283 2.25 8.25015" stroke="#8B8890" stroke-linecap="round" stroke-linejoin="round"/>
<path d="M7.5 15.0002C4.60051 15.0002 2.25 13.9928 2.25 12.7502V3.75018" stroke="#8B8890" stroke-linecap="round" stroke-linejoin="round"/>
<path d="M13.5 11.2501V7.9887C13.5 7.71885 13.2812 7.50008 13.0114 7.50015C12.8481 7.50023 12.6956 7.58183 12.605 7.71773L9.84667 11.8553C9.78367 11.9498 9.75 12.0609 9.75 12.1745C9.75 12.4925 10.0078 12.7502 10.3257 12.7502H12V16.0116C12 16.2815 12.2188 16.5002 12.4886 16.5002C12.6519 16.5001 12.8044 16.4185 12.895 16.2826L15.6533 12.1451C15.7163 12.0505 15.75 11.9394 15.75 11.8258C15.75 11.5078 15.4922 11.2501 15.1743 11.2501H13.5Z" stroke="#8B8890" stroke-linecap="round" stroke-linejoin="round"/>
<path d="M4.5 7.86719V7.87344" stroke="#8B8890" stroke-linecap="round" stroke-linejoin="round"/>
<path d="M4.5 12.3674V12.3737" stroke="#8B8890" stroke-linecap="round" stroke-linejoin="round"/>
</svg>
