<svg width="40" height="40" viewBox="0 0 40 40" fill="none" xmlns="http://www.w3.org/2000/svg">
<path d="M34.9927 8.15028L22.3933 0.669842C20.8958 -0.223281 19.0291 -0.223281 17.5317 0.669842L4.9297 8.15028C3.41385 9.06474 2.49095 10.7093 2.50007 12.4796V27.438C2.49184 29.2073 3.41463 30.8507 4.9297 31.7647L17.5291 39.2427C19.0268 40.1352 20.8931 40.1352 22.3908 39.2427L34.9902 31.7647C36.507 30.8509 37.431 29.2062 37.4224 27.4354V12.4796C37.4315 10.7093 36.5086 9.06474 34.9927 8.15028Z" fill="#8B8890"/>
<path d="M35.0643 8.16823L22.4371 0.671318C20.9363 -0.223773 19.0656 -0.223773 17.5648 0.671318L4.93505 8.16823C3.41587 9.08471 2.49093 10.7329 2.50007 12.5071V27.4984C2.49182 29.2717 3.41664 30.9187 4.93505 31.8347L17.5622 39.3291C19.0632 40.2236 20.9336 40.2236 22.4346 39.3291L35.0618 31.8347C36.5819 30.9189 37.5079 29.2706 37.4993 27.4959V12.5071C37.5084 10.7329 36.5835 9.08471 35.0643 8.16823ZM18.0047 38.563L5.37753 31.0686C4.1297 30.3124 3.36967 28.9574 3.37495 27.4984V12.5071C3.36916 11.0479 4.12933 9.69267 5.37753 8.93689L18.0047 1.43997C19.2336 0.706809 20.7657 0.706809 21.9946 1.43997L34.6117 8.93689C35.6518 9.56686 36.3613 10.6233 36.551 11.8244C36.1313 10.9318 35.1882 10.6866 34.0883 11.3187L22.1514 18.712C20.6621 19.5792 19.5648 20.5577 19.5623 22.3529V37.0737C19.5623 38.1483 19.9946 38.8436 20.6621 39.0484C20.4435 39.0885 20.2219 39.1096 19.9997 39.1116C19.2975 39.1111 18.6084 38.9216 18.0047 38.563Z" fill="#1E1E1E"/>
<path d="M31.7199 28.9156L28.5814 30.7927C28.4974 30.8264 28.441 30.9065 28.4376 30.997V31.822C28.4376 31.9229 28.5057 31.9633 28.589 31.9154L31.7754 29.9778C31.8535 29.9193 31.8908 29.821 31.8713 29.7255V29.0014C31.8688 28.908 31.7956 28.8677 31.7199 28.9156Z" fill="#8B8890"/>
<path d="M25.0411 22.005C25.142 21.9545 25.2253 22.005 25.2278 22.1488L25.2379 23.2438C25.6153 23.0723 26.0364 23.0212 26.4439 23.0974C26.5221 23.1176 26.5549 23.2236 26.5246 23.3497L26.2849 24.3109C26.2668 24.3835 26.2293 24.4498 26.1764 24.5027C26.1579 24.521 26.1366 24.5363 26.1134 24.5481C26.0848 24.5635 26.0519 24.5689 26.02 24.5632C25.6227 24.4753 25.2068 24.542 24.857 24.7499C24.3454 24.9804 24.0111 25.4834 23.9966 26.0442C23.9966 26.5488 24.2489 26.6875 25.1294 26.7027C26.2925 26.7229 26.7971 27.23 26.8097 28.4031C26.782 29.6277 26.2174 30.7781 25.2657 31.5492L25.2858 32.6239C25.2841 32.7574 25.2147 32.8809 25.1017 32.9519L24.4659 33.3177C24.365 33.3682 24.2817 33.3177 24.2792 33.1765V32.1194C23.7343 32.3464 23.1817 32.3994 22.8285 32.2581C22.7629 32.2329 22.7327 32.1345 22.7604 32.021L22.99 31.0496C23.0075 30.9728 23.0469 30.9027 23.1035 30.8478C23.1215 30.8306 23.1419 30.8162 23.1641 30.8049C23.197 30.7901 23.2346 30.7901 23.2675 30.8049C23.7173 30.9269 24.197 30.8661 24.6021 30.6359C25.1868 30.3539 25.5667 29.7709 25.5886 29.1221C25.5886 28.5772 25.2884 28.3501 24.5794 28.3451C23.6636 28.3451 22.8134 28.1685 22.7957 26.8313C22.8168 25.6632 23.3591 24.5656 24.2742 23.8392L24.2287 22.7392C24.2283 22.6038 24.298 22.4778 24.4129 22.4061L25.0411 22.005Z" fill="#8B8890"/>
</svg>
