<svg width="34" height="34" viewBox="0 0 34 34" fill="none" xmlns="http://www.w3.org/2000/svg">
<path d="M11.3333 17H11.346M16.9936 17H17.0062M22.6539 17H22.6665" stroke="#8B8890" stroke-width="1.8" stroke-linecap="round" stroke-linejoin="round"/>
<path d="M25.5 29.75C27.2456 29.75 28.6606 28.119 28.6606 26.1072C28.6606 22.9228 28.5192 20.8058 30.7038 18.2879C31.3209 17.5766 31.3209 16.4233 30.7038 15.712C28.5192 13.1942 28.6606 11.0771 28.6606 7.89286C28.6606 5.88097 27.2456 4.25 25.5 4.25" stroke="#8B8890" stroke-width="1.6" stroke-linecap="round" stroke-linejoin="round"/>
<path d="M8.49992 29.75C6.75436 29.75 5.33929 28.119 5.33929 26.1072C5.33929 22.9228 5.48068 20.8058 3.29612 18.2879C2.67896 17.5766 2.67896 16.4233 3.29612 15.712C5.43278 13.2494 5.33929 11.1066 5.33929 7.89286C5.33929 5.88097 6.75436 4.25 8.49992 4.25" stroke="#8B8890" stroke-width="1.6" stroke-linecap="round" stroke-linejoin="round"/>
</svg>
