<svg width="80" height="30" viewBox="0 0 80 30" fill="none" xmlns="http://www.w3.org/2000/svg">
<path d="M5.99533 9.14124C5.87043 9.14124 5.74553 9.01634 5.87043 8.89144L6.74475 7.89221C6.86965 7.76731 6.99455 7.64241 7.11946 7.64241H20.9837C21.1086 7.64241 21.2335 7.76731 21.1086 7.89221L20.4841 8.89144C20.3591 9.01634 20.2342 9.14124 20.1093 9.14124H5.99533ZM0.124903 12.7634C0 12.7634 0 12.6385 0 12.5136L0.874319 11.5144C0.874319 11.3895 1.12412 11.2646 1.24903 11.2646H18.9852C19.1101 11.2646 19.235 11.3895 19.235 11.5144L18.9852 12.3887C18.9852 12.5136 18.7354 12.6385 18.6105 12.6385L0.124903 12.7634ZM9.61751 16.2607C9.49261 16.2607 9.36771 16.1358 9.49261 16.0109L9.99222 15.1366C10.1171 15.0117 10.242 14.8868 10.3669 14.8868H18.1109C18.2358 14.8868 18.3607 15.0117 18.3607 15.1366L18.2358 16.0109C18.2358 16.1358 18.1109 16.2607 17.986 16.2607H9.61751ZM49.9611 8.39183L43.4662 10.1405C42.8416 10.2654 42.8416 10.3903 42.342 9.76576C41.7175 9.14124 41.3428 8.64163 40.4685 8.26692C37.9704 7.0179 35.5973 7.3926 33.4739 8.89144C30.851 10.6401 29.477 13.1381 29.477 16.2607C29.477 19.3833 31.6004 21.8813 34.723 22.3809C37.3459 22.7556 39.5942 21.7564 41.3428 19.758C41.7175 19.3833 41.9673 18.8837 42.342 18.2591H34.8479C33.9735 18.2591 33.8486 17.7595 34.0984 17.135C34.5981 15.886 35.5973 13.8875 36.0969 12.8883C36.2218 12.6385 36.4716 12.2638 37.0961 12.2638H51.2101C51.0852 13.263 51.0852 14.3872 50.9603 15.3864C50.5856 18.1342 49.4615 20.7572 47.7129 23.0054C44.965 26.7525 41.2179 29.0008 36.5965 29.6253C32.7245 30.1249 29.2272 29.3755 26.1047 27.0023C23.2319 24.879 21.6082 21.8813 21.1086 18.384C20.609 14.1374 21.858 10.3903 24.356 7.0179C27.1039 3.39572 30.7261 1.14747 35.2226 0.273147C38.8448 -0.351367 42.342 0.0233416 45.5895 2.14669C47.7128 3.52062 49.0868 5.39416 50.086 7.64241C50.5856 8.14202 50.4607 8.26692 49.9611 8.39183Z" fill="#8B8890"/>
<path d="M62.826 30C59.3287 29.8751 56.0812 28.8759 53.3334 26.6276C51.0851 24.6292 49.5863 22.1311 49.0867 19.1334C48.3372 14.7619 49.5863 10.8899 52.2092 7.39259C55.082 3.64551 58.4544 1.77197 63.0758 0.897649C67.0727 0.148233 70.8197 0.647842 74.1921 2.89609C77.3147 5.01944 79.1882 7.8922 79.6878 11.5144C80.3124 16.7603 78.8135 21.007 75.1913 24.7541C72.5684 27.377 69.4458 29.0008 65.8236 29.7502C64.9493 29.7502 63.8252 29.8751 62.826 30ZM72.0688 14.2622C72.0688 13.7626 72.0688 13.3879 71.9439 13.0132C71.1945 9.14123 67.6972 7.01788 63.9501 7.8922C60.3279 8.76652 57.9548 11.0148 57.0804 14.637C56.331 17.6346 57.8299 20.7572 60.7026 22.0062C62.826 22.8805 64.9493 22.8805 67.0727 21.7564C70.1952 20.0078 71.9439 17.5097 72.0688 14.2622Z" fill="#8B8890"/>
</svg>
