<svg width="34" height="34" viewBox="0 0 34 34" fill="none" xmlns="http://www.w3.org/2000/svg">
<path d="M27.625 2.83331H19.125C17.169 2.83331 15.5834 4.41897 15.5834 6.37498V14.875C15.5834 16.831 17.169 18.4166 19.125 18.4166H27.625C29.581 18.4166 31.1667 16.831 31.1667 14.875V6.37498C31.1667 4.41897 29.581 2.83331 27.625 2.83331Z" stroke="#8B8890" stroke-width="1.6" stroke-linecap="round" stroke-linejoin="round"/>
<path d="M15.5834 9.20905C12.711 9.21422 11.2069 9.28474 10.2457 10.246C9.20837 11.2833 9.20837 12.9529 9.20837 16.292V17.7086C9.20837 21.0477 9.20837 22.7173 10.2457 23.7547C11.283 24.792 12.9526 24.792 16.2917 24.792H17.7084C21.0475 24.792 22.717 24.792 23.7544 23.7547C24.7156 22.7935 24.7862 21.2893 24.7913 18.417" stroke="#8B8890" stroke-width="1.6" stroke-linecap="round" stroke-linejoin="round"/>
<path d="M9.20837 15.584C6.33604 15.5891 4.83194 15.6597 3.8707 16.6209C2.83337 17.6583 2.83337 19.3279 2.83337 22.667V24.0836C2.83337 27.4227 2.83337 29.0922 3.8707 30.1297C4.90804 31.167 6.5776 31.167 9.91671 31.167H11.3334C14.6725 31.167 16.342 31.167 17.3794 30.1297C18.3406 29.1685 18.4112 27.6642 18.4163 24.792" stroke="#8B8890" stroke-width="1.6" stroke-linecap="round" stroke-linejoin="round"/>
</svg>
