<svg width="18" height="18" viewBox="0 0 18 18" fill="none" xmlns="http://www.w3.org/2000/svg">
<path d="M7.2043 3.60974C8.0892 3.20324 8.53163 3 9 3C9.46837 3 9.9108 3.20324 10.7957 3.60974L14.4655 5.29548C15.8219 5.91853 16.5 6.23005 16.5 6.75C16.5 7.26995 15.8219 7.58145 14.4655 8.20455L10.7957 9.89025C9.9108 10.2968 9.46837 10.5 9 10.5C8.53163 10.5 8.0892 10.2968 7.2043 9.89025L3.53452 8.20455C2.17817 7.58145 1.5 7.26995 1.5 6.75C1.5 6.23005 2.17817 5.91853 3.53452 5.29548L7.2043 3.60974Z" stroke="#8B8890" stroke-linecap="round" stroke-linejoin="round"/>
<path d="M15.1745 10.125C16.0582 10.5465 16.5 10.8304 16.5 11.2501C16.5 11.7701 15.8219 12.0815 14.4655 12.7046L10.7957 14.3903C9.9108 14.7968 9.46837 15.0001 9 15.0001C8.53163 15.0001 8.0892 14.7968 7.2043 14.3903L3.53452 12.7046C2.17817 12.0815 1.5 11.7701 1.5 11.2501C1.5 10.8304 1.94182 10.5465 2.82545 10.125" stroke="#8B8890" stroke-linecap="round" stroke-linejoin="round"/>
</svg>
