<svg width="407" height="96" viewBox="0 0 407 96" fill="none" xmlns="http://www.w3.org/2000/svg">
<path d="M0.300049 0H406.126V96H0.300049V0Z" fill="#0E0E0F"/>
<path d="M406.126 0H405.826V96H406.126H406.426V0H406.126ZM0.300049 96H0.600049V0H0.300049H4.88162e-05V96H0.300049Z" fill="#272728"/>
<path d="M34.2954 42.1412C34.1705 42.1412 34.0456 42.0163 34.1705 41.8914L35.0448 40.8922C35.1697 40.7673 35.2946 40.6424 35.4195 40.6424H49.2837C49.4086 40.6424 49.5335 40.7673 49.4086 40.8922L48.7841 41.8914C48.6592 42.0163 48.5343 42.1412 48.4094 42.1412H34.2954ZM28.425 45.7634C28.3 45.7634 28.3 45.6385 28.3 45.5136L29.1744 44.5144C29.1744 44.3895 29.4242 44.2646 29.5491 44.2646H47.2853C47.4102 44.2646 47.5351 44.3895 47.5351 44.5144L47.2853 45.3887C47.2853 45.5136 47.0355 45.6385 46.9106 45.6385L28.425 45.7634ZM37.9176 49.2607C37.7927 49.2607 37.6678 49.1358 37.7927 49.0109L38.2923 48.1366C38.4172 48.0117 38.5421 47.8868 38.667 47.8868H46.4109C46.5359 47.8868 46.6608 48.0117 46.6608 48.1366L46.5359 49.0109C46.5359 49.1358 46.4109 49.2607 46.286 49.2607H37.9176ZM78.2611 41.3918L71.7662 43.1405C71.1417 43.2654 71.1417 43.3903 70.6421 42.7658C70.0176 42.1412 69.6429 41.6416 68.7685 41.2669C66.2705 40.0179 63.8973 40.3926 61.774 41.8914C59.151 43.6401 57.7771 46.1381 57.7771 49.2607C57.7771 52.3833 59.9004 54.8813 63.023 55.3809C65.646 55.7556 67.8942 54.7564 69.6429 52.758C70.0176 52.3833 70.2674 51.8837 70.6421 51.2591H63.1479C62.2736 51.2591 62.1487 50.7595 62.3985 50.135C62.8981 48.886 63.8973 46.8875 64.3969 45.8883C64.5218 45.6385 64.7717 45.2638 65.3962 45.2638H79.5102C79.3853 46.263 79.3853 47.3872 79.2604 48.3864C78.8857 51.1342 77.7615 53.7572 76.0129 56.0054C73.265 59.7525 69.518 62.0008 64.8966 62.6253C61.0246 63.1249 57.5273 62.3755 54.4047 60.0023C51.532 57.879 49.9082 54.8813 49.4086 51.384C48.909 47.1374 50.158 43.3903 52.6561 40.0179C55.4039 36.3957 59.0261 34.1475 63.5226 33.2731C67.1448 32.6486 70.6421 33.0233 73.8896 35.1467C76.0129 36.5206 77.3868 38.3942 78.3861 40.6424C78.8857 41.142 78.7608 41.2669 78.2611 41.3918Z" fill="#8B8890"/>
<path d="M91.126 63C87.6287 62.8751 84.3813 61.8759 81.6334 59.6276C79.3852 57.6292 77.8863 55.1311 77.3867 52.1334C76.6373 47.7619 77.8863 43.8899 80.5093 40.3926C83.382 36.6455 86.7544 34.772 91.3758 33.8976C95.3727 33.1482 99.1198 33.6478 102.492 35.8961C105.615 38.0194 107.488 40.8922 107.988 44.5144C108.612 49.7603 107.114 54.007 103.491 57.7541C100.868 60.377 97.7459 62.0008 94.1237 62.7502C93.2494 62.7502 92.1252 62.8751 91.126 63ZM100.369 47.2622C100.369 46.7626 100.369 46.3879 100.244 46.0132C99.4945 42.1412 95.9972 40.0179 92.2501 40.8922C88.628 41.7665 86.2548 44.0148 85.3805 47.637C84.6311 50.6346 86.1299 53.7572 89.0027 55.0062C91.126 55.8805 93.2494 55.8805 95.3727 54.7564C98.4953 53.0078 100.244 50.5097 100.369 47.2622Z" fill="#8B8890"/>
<path d="M176.446 28.5338C177.446 27.9675 178.721 27.965 179.696 28.5338L194.626 36.95C195.56 37.475 196.185 38.5163 196.176 39.5925V56.4675C196.182 57.5888 195.496 58.6525 194.511 59.1675L179.661 67.545C179.153 67.8257 178.579 67.9653 177.999 67.9492C177.419 67.9332 176.854 67.7621 176.362 67.4538L171.906 64.8788C171.602 64.6975 171.261 64.5538 171.046 64.26C171.236 64.005 171.573 63.9725 171.848 63.86C172.468 63.6625 173.036 63.36 173.606 63.04C173.75 62.94 173.926 62.9775 174.063 63.0675L177.863 65.265C178.135 65.4213 178.41 65.215 178.642 65.0838L193.223 56.855C193.403 56.7675 193.503 56.5775 193.488 56.38V39.6675C193.508 39.4425 193.38 39.2375 193.176 39.1463L178.363 30.805C178.278 30.746 178.177 30.7143 178.073 30.714C177.969 30.7138 177.868 30.7451 177.782 30.8038L162.991 39.1625C162.791 39.2538 162.653 39.4563 162.678 39.6813V56.3938C162.661 56.5913 162.766 56.7775 162.947 56.8625L166.9 59.0938C167.642 59.4938 168.553 59.7188 169.371 59.425C169.729 59.2902 170.036 59.0492 170.253 58.7345C170.47 58.4197 170.586 58.0461 170.585 57.6638L170.588 41.0513C170.571 40.805 170.803 40.6013 171.042 40.6263H172.942C173.192 40.62 173.388 40.885 173.355 41.1325L173.351 57.85C173.352 59.335 172.742 60.95 171.368 61.6788C169.676 62.5538 167.583 62.37 165.911 61.5288L161.661 59.1788C160.661 58.6788 159.99 57.5988 159.996 56.4788V39.6038C160 39.0553 160.151 38.5179 160.432 38.0474C160.714 37.5768 161.117 37.1902 161.598 36.9275L176.446 28.5338ZM180.751 40.2313C182.91 40.1063 185.221 40.1488 187.163 41.2125C188.667 42.0275 189.501 43.7375 189.528 45.41C189.486 45.635 189.251 45.76 189.036 45.7438C188.411 45.7425 187.783 45.7525 187.156 45.74C186.89 45.75 186.736 45.505 186.702 45.27C186.522 44.47 186.086 43.6788 185.333 43.2925C184.178 42.7138 182.838 42.7425 181.578 42.755C180.658 42.805 179.67 42.8838 178.891 43.4238C178.291 43.8338 178.111 44.6738 178.325 45.3263C178.525 45.805 179.078 45.9588 179.53 46.1013C182.132 46.7813 184.888 46.7263 187.442 47.61C188.498 47.975 189.532 48.685 189.895 49.7913C190.367 51.2738 190.161 53.0463 189.107 54.2363C188.252 55.2163 187.007 55.7363 185.763 56.0388C184.11 56.4075 182.395 56.4163 180.716 56.2513C179.137 56.0713 177.495 55.6563 176.276 54.5813C175.233 53.6763 174.726 52.2663 174.776 50.9063C174.788 50.6763 175.017 50.5163 175.238 50.535H177.113C177.366 50.5175 177.551 50.735 177.563 50.9725C177.68 51.7225 177.966 52.535 178.631 52.9725C179.913 53.8 181.522 53.7425 182.99 53.7663C184.206 53.7125 185.571 53.6963 186.565 52.8913C187.09 52.4325 187.243 51.6663 187.102 51.0063C186.948 50.4488 186.352 50.19 185.852 50.0063C183.283 49.1938 180.496 49.4888 177.952 48.5688C176.92 48.2038 175.921 47.5138 175.525 46.4525C174.971 44.9525 175.225 43.0938 176.391 41.9438C177.516 40.8 179.166 40.3588 180.728 40.2013L180.751 40.2313Z" fill="#8B8890"/>
<path d="M283.118 36.1503L270.519 28.6698C269.022 27.7767 267.155 27.7767 265.657 28.6698L253.055 36.1503C251.54 37.0647 250.617 38.7093 250.626 40.4796V55.438C250.618 57.2073 251.54 58.8507 253.055 59.7647L265.655 67.2427C267.153 68.1352 269.019 68.1352 270.517 67.2427L283.116 59.7647C284.633 58.8509 285.557 57.2062 285.548 55.4354V40.4796C285.557 38.7093 284.634 37.0647 283.118 36.1503Z" fill="#8B8890"/>
<path d="M283.19 36.1682L270.563 28.6713C269.062 27.7762 267.191 27.7762 265.69 28.6713L253.061 36.1682C251.542 37.0847 250.617 38.7329 250.626 40.5071V55.4984C250.618 57.2717 251.542 58.9187 253.061 59.8347L265.688 67.3291C267.189 68.2236 269.059 68.2236 270.56 67.3291L283.188 59.8347C284.708 58.9189 285.634 57.2706 285.625 55.4959V40.5071C285.634 38.7329 284.709 37.0847 283.19 36.1682ZM266.13 66.563L253.503 59.0686C252.255 58.3124 251.495 56.9574 251.501 55.4984V40.5071C251.495 39.0479 252.255 37.6927 253.503 36.9369L266.13 29.44C267.359 28.7068 268.891 28.7068 270.12 29.44L282.737 36.9369C283.778 37.5669 284.487 38.6233 284.677 39.8244C284.257 38.9318 283.314 38.6866 282.214 39.3187L270.277 46.712C268.788 47.5792 267.691 48.5577 267.688 50.3529V65.0737C267.688 66.1483 268.12 66.8436 268.788 67.0484C268.569 67.0885 268.348 67.1096 268.125 67.1116C267.423 67.1111 266.734 66.9216 266.13 66.563Z" fill="#1E1E1E"/>
<path d="M279.846 56.9156L276.707 58.7927C276.623 58.8264 276.567 58.9065 276.563 58.997V59.822C276.563 59.9229 276.631 59.9633 276.715 59.9154L279.901 57.9778C279.979 57.9193 280.017 57.821 279.997 57.7255V57.0014C279.995 56.908 279.921 56.8677 279.846 56.9156Z" fill="#8B8890"/>
<path d="M273.167 50.005C273.268 49.9545 273.351 50.005 273.354 50.1488L273.364 51.2438C273.741 51.0723 274.162 51.0212 274.57 51.0974C274.648 51.1176 274.681 51.2236 274.65 51.3497L274.411 52.3109C274.392 52.3835 274.355 52.4498 274.302 52.5027C274.284 52.521 274.262 52.5363 274.239 52.5481C274.211 52.5635 274.178 52.5689 274.146 52.5632C273.748 52.4753 273.333 52.542 272.983 52.7499C272.471 52.9804 272.137 53.4834 272.122 54.0442C272.122 54.5488 272.375 54.6875 273.255 54.7027C274.418 54.7229 274.923 55.23 274.935 56.4031C274.908 57.6277 274.343 58.7781 273.391 59.5492L273.412 60.6239C273.41 60.7574 273.34 60.8809 273.227 60.9519L272.592 61.3177C272.491 61.3682 272.407 61.3177 272.405 61.1765V60.1194C271.86 60.3464 271.307 60.3994 270.954 60.2581C270.889 60.2329 270.858 60.1345 270.886 60.021L271.116 59.0496C271.133 58.9728 271.173 58.9027 271.229 58.8478C271.247 58.8306 271.268 58.8162 271.29 58.8049C271.323 58.7901 271.36 58.7901 271.393 58.8049C271.843 58.9269 272.323 58.8661 272.728 58.6359C273.313 58.3539 273.692 57.7709 273.714 57.1221C273.714 56.5772 273.414 56.3501 272.705 56.3451C271.789 56.3451 270.939 56.1685 270.921 54.8313C270.943 53.6632 271.485 52.5656 272.4 51.8392L272.354 50.7392C272.354 50.6038 272.424 50.4778 272.539 50.4061L273.167 50.005Z" fill="#8B8890"/>
<g clip-path="url(#clip0_81_7293)">
<path d="M348.477 33.5194C348.477 30.8274 349.215 29.3629 353.292 28.6655C356.059 28.1912 359.608 28.1319 362.918 28.6655C365.533 29.0874 367.733 30.9914 367.733 33.5194V42.4011C367.733 45.006 365.597 47.1398 362.918 47.1398H353.292C350.025 47.1398 347.271 49.8633 347.271 52.9422V57.2035H343.961C341.161 57.2035 339.531 55.2298 338.846 52.468C337.923 48.7576 337.962 46.5469 338.846 42.9935C339.613 39.8936 342.063 38.2579 344.864 38.2579H358.107V37.0723H348.476V33.5192L348.477 33.5194Z" fill="#8B8890"/>
<path d="M367.734 61.9424C367.734 64.6345 365.344 65.998 362.919 66.678C359.27 67.7032 356.341 67.5463 353.292 66.678C350.745 65.9527 348.477 64.4706 348.477 61.9424V53.0608C348.477 50.5047 350.656 48.322 353.292 48.322H362.919C366.125 48.322 368.939 45.6128 368.939 42.401V38.2583H372.549C375.352 38.2583 376.672 40.2947 377.364 42.9939C378.327 46.7425 378.37 49.5461 377.364 52.4683C376.39 55.3068 375.349 57.2039 372.549 57.2039H358.107V58.3895H367.734V61.9424Z" fill="#8B8890"/>
<path d="M350.884 32.9301C350.884 31.9468 351.69 31.1516 352.689 31.1516C353.684 31.1516 354.494 31.9466 354.494 32.9301C354.494 33.9103 353.684 34.7051 352.689 34.7051C351.691 34.7051 350.884 33.9101 350.884 32.9301ZM361.716 62.5319C361.716 61.5517 362.526 60.7569 363.521 60.7569C364.519 60.7569 365.326 61.5519 365.326 62.5319C365.326 63.5152 364.52 64.3104 363.521 64.3104C362.526 64.3104 361.716 63.5154 361.716 62.5319Z" fill="#0E0E0F"/>
</g>
<defs>
<clipPath id="clip0_81_7293">
<rect width="40" height="40" fill="white" transform="translate(338.126 28)"/>
</clipPath>
</defs>
</svg>
