<svg width="40" height="40" viewBox="0 0 40 40" fill="none" xmlns="http://www.w3.org/2000/svg">
<g clip-path="url(#clip0_81_7307)">
<path d="M10.351 5.51941C10.351 2.82735 11.0893 1.36286 15.166 0.665489C17.9337 0.191222 21.4824 0.131939 24.7926 0.665489C27.4071 1.08739 29.6076 2.99137 29.6076 5.51941V14.4011C29.6076 17.006 27.4711 19.1398 24.7926 19.1398H15.166C11.8988 19.1398 9.14528 21.8633 9.14528 24.9422V29.2035H5.83529C3.03545 29.2035 1.40532 27.2298 0.720517 24.468C-0.203194 20.7576 -0.163982 18.5469 0.720517 14.9935C1.48738 11.8936 3.93774 10.2579 6.73778 10.2579H19.981V9.07226H10.3508V5.51922L10.351 5.51941Z" fill="#8B8890"/>
<path d="M29.6078 33.9424C29.6078 36.6345 27.2181 37.998 24.7928 38.678C21.1441 39.7032 18.2157 39.5463 15.1662 38.678C12.6194 37.9527 10.3512 36.4706 10.3512 33.9424V25.0608C10.3512 22.5047 12.5305 20.322 15.1662 20.322H24.7928C27.9993 20.322 30.8135 17.6128 30.8135 14.401V10.2583H34.4231C37.2265 10.2583 38.5464 12.2947 39.2381 14.9939C40.201 18.7425 40.2439 21.5461 39.2381 24.4683C38.2645 27.3068 37.2229 29.2039 34.4231 29.2039H19.9812V30.3895H29.6078V33.9424Z" fill="#8B8890"/>
<path d="M12.7584 4.93011C12.7584 3.9468 13.5645 3.15161 14.5634 3.15161C15.5585 3.15161 16.3684 3.9466 16.3684 4.93011C16.3684 5.91026 15.5587 6.70506 14.5634 6.70506C13.5649 6.70506 12.7584 5.91007 12.7584 4.93011ZM23.5903 34.5319C23.5903 33.5517 24.4 32.7569 25.3953 32.7569C26.3938 32.7569 27.2003 33.5519 27.2003 34.5319C27.2003 35.5152 26.3942 36.3104 25.3953 36.3104C24.4002 36.3104 23.5903 35.5154 23.5903 34.5319Z" fill="#0E0E0F"/>
</g>
<defs>
<clipPath id="clip0_81_7307">
<rect width="40" height="40" fill="white"/>
</clipPath>
</defs>
</svg>
