<svg width="34" height="34" viewBox="0 0 34 34" fill="none" xmlns="http://www.w3.org/2000/svg">
<path d="M20.5288 21.9583H20.5416M13.4583 21.9583H13.471" stroke="#8B8890" stroke-width="1.8" stroke-linecap="round" stroke-linejoin="round"/>
<path d="M6.04615 26.6967C6.36473 29.0629 8.3246 30.9166 10.7096 31.0263C12.7165 31.1185 14.7551 31.1667 17.0001 31.1667C19.2451 31.1667 21.2837 31.1185 23.2905 31.0263C25.6756 30.9166 27.6354 29.0629 27.954 26.6967C28.162 25.1525 28.3334 23.5699 28.3334 21.9583C28.3334 20.3467 28.162 18.7642 27.954 17.22C27.6354 14.8538 25.6756 13 23.2905 12.8904C21.2837 12.7981 19.2451 12.75 17.0001 12.75C14.7551 12.75 12.7165 12.7981 10.7096 12.8904C8.3246 13 6.36473 14.8538 6.04615 17.22C5.83824 18.7642 5.66675 20.3467 5.66675 21.9583C5.66675 23.5699 5.83824 25.1525 6.04615 26.6967Z" stroke="#8B8890" stroke-width="1.6"/>
<path d="M10.625 12.75V9.20831C10.625 5.6875 13.4792 2.83331 17 2.83331C20.5208 2.83331 23.375 5.6875 23.375 9.20831V12.75" stroke="#8B8890" stroke-width="1.6" stroke-linecap="round" stroke-linejoin="round"/>
</svg>
