<svg width="28" height="28" viewBox="0 0 28 28" fill="none" xmlns="http://www.w3.org/2000/svg">
<path d="M2.91675 14C2.91675 8.77523 2.91675 6.16286 4.53986 4.53974C6.16299 2.91663 8.77535 2.91663 14.0001 2.91663C19.2248 2.91663 21.8372 2.91663 23.4603 4.53974C25.0834 6.16286 25.0834 8.77523 25.0834 14C25.0834 19.2246 25.0834 21.837 23.4603 23.4602C21.8372 25.0833 19.2248 25.0833 14.0001 25.0833C8.77535 25.0833 6.16299 25.0833 4.53986 23.4602C2.91675 21.837 2.91675 19.2246 2.91675 14Z" stroke="#8B8890" stroke-width="1.5"/>
<path d="M2.91675 10.5H25.0834" stroke="#8B8890" stroke-width="1.5" stroke-linejoin="round"/>
<path d="M8.16626 7H8.17674" stroke="#8B8890" stroke-width="1.5" stroke-linecap="round" stroke-linejoin="round"/>
<path d="M12.833 7H12.8435" stroke="#8B8890" stroke-width="1.5" stroke-linecap="round" stroke-linejoin="round"/>
</svg>
