<svg width="28" height="28" viewBox="0 0 28 28" fill="none" xmlns="http://www.w3.org/2000/svg">
<path d="M8.16675 8.16663L9.59771 9.40001C10.1993 9.91853 10.5001 10.1778 10.5001 10.5C10.5001 10.8221 10.1993 11.0814 9.59771 11.5999L8.16675 12.8333" stroke="#8B8890" stroke-width="1.5" stroke-linecap="round" stroke-linejoin="round"/>
<path d="M12.8333 12.8334H16.3333" stroke="#8B8890" stroke-width="1.5" stroke-linecap="round" stroke-linejoin="round"/>
<path d="M14 24.5C18.3746 24.5 20.562 24.5 22.0954 23.3859C22.5906 23.0261 23.0261 22.5906 23.3859 22.0954C24.5 20.562 24.5 18.3746 24.5 14C24.5 9.62531 24.5 7.43797 23.3859 5.90458C23.0261 5.40937 22.5906 4.97386 22.0954 4.61406C20.562 3.5 18.3746 3.5 14 3.5C9.62531 3.5 7.43797 3.5 5.90458 4.61406C5.40937 4.97386 4.97386 5.40937 4.61406 5.90458C3.5 7.43797 3.5 9.62531 3.5 14C3.5 18.3746 3.5 20.562 4.61406 22.0954C4.97386 22.5906 5.40937 23.0261 5.90458 23.3859C7.43797 24.5 9.62531 24.5 14 24.5Z" stroke="#8B8890" stroke-width="1.5" stroke-linecap="round" stroke-linejoin="round"/>
</svg>
