<svg width="28" height="28" viewBox="0 0 28 28" fill="none" xmlns="http://www.w3.org/2000/svg">
<path d="M14.5834 5.25004C14.5834 3.87511 14.5834 3.18764 15.0105 2.76051C15.4376 2.33337 16.1251 2.33337 17.5 2.33337C18.875 2.33337 19.5625 2.33337 19.9896 2.76051C20.4167 3.18764 20.4167 3.87511 20.4167 5.25004C20.4167 6.62497 20.4167 7.31244 19.9896 7.73957C19.5625 8.16671 18.875 8.16671 17.5 8.16671C16.1251 8.16671 15.4376 8.16671 15.0105 7.73957C14.5834 7.31244 14.5834 6.62497 14.5834 5.25004Z" stroke="#8B8890" stroke-width="1.5"/>
<path d="M14.5834 22.75C14.5834 21.3751 14.5834 20.6876 15.0105 20.2605C15.4376 19.8334 16.1251 19.8334 17.5 19.8334C18.875 19.8334 19.5625 19.8334 19.9896 20.2605C20.4167 20.6876 20.4167 21.3751 20.4167 22.75C20.4167 24.125 20.4167 24.8125 19.9896 25.2396C19.5625 25.6667 18.875 25.6667 17.5 25.6667C16.1251 25.6667 15.4376 25.6667 15.0105 25.2396C14.5834 24.8125 14.5834 24.125 14.5834 22.75Z" stroke="#8B8890" stroke-width="1.5"/>
<path d="M2.33337 14C2.33337 12.3501 2.33337 11.5251 2.93136 11.0126C3.52936 10.5 4.4918 10.5 6.41671 10.5C8.34161 10.5 9.30406 10.5 9.90205 11.0126C10.5 11.5251 10.5 12.3501 10.5 14C10.5 15.6499 10.5 16.4749 9.90205 16.9875C9.30406 17.5 8.34161 17.5 6.41671 17.5C4.4918 17.5 3.52936 17.5 2.93136 16.9875C2.33337 16.4749 2.33337 15.6499 2.33337 14Z" stroke="#8B8890" stroke-width="1.5"/>
<path d="M25.6659 5.25011H20.4166M6.41663 10.5002V9.33333C6.41663 7.6948 6.41663 6.87553 6.80986 6.287C6.9801 6.03223 7.19885 5.81348 7.45363 5.64324C8.04215 5.25 8.86142 5.25 10.5 5.25H14.5833M25.6659 22.7505H20.4166M6.41663 17.5004V18.6673C6.41663 20.3058 6.41663 21.1251 6.80986 21.7135C6.9801 21.9683 7.19885 22.1871 7.45363 22.3573C8.04215 22.7506 8.86142 22.7506 10.5 22.7506H14.5833" stroke="#8B8890" stroke-width="1.5" stroke-linecap="round" stroke-linejoin="round"/>
</svg>
