<svg width="28" height="28" viewBox="0 0 28 28" fill="none" xmlns="http://www.w3.org/2000/svg">
<path d="M8.16663 22.1666H15.1666C18.4664 22.1666 20.1163 22.1666 21.1415 21.1415C22.1666 20.1163 22.1666 18.4664 22.1666 15.1666V11.6666M22.1666 11.6666C22.9835 11.6666 24.5099 13.9933 25.0833 14.5833M22.1666 11.6666C21.3497 11.6666 19.8234 13.9933 19.25 14.5833" stroke="#8B8890" stroke-width="1.5" stroke-linecap="round" stroke-linejoin="round"/>
<path d="M5.83337 8.16663V19.8333" stroke="#8B8890" stroke-width="1.5" stroke-linecap="round" stroke-linejoin="round"/>
<path d="M5.83333 8.16667C7.122 8.16667 8.16667 7.122 8.16667 5.83333C8.16667 4.54467 7.122 3.5 5.83333 3.5C4.54467 3.5 3.5 4.54467 3.5 5.83333C3.5 7.122 4.54467 8.16667 5.83333 8.16667Z" stroke="#8B8890" stroke-width="1.5"/>
<path d="M22.1667 8.16667C23.4554 8.16667 24.5 7.122 24.5 5.83333C24.5 4.54467 23.4554 3.5 22.1667 3.5C20.878 3.5 19.8334 4.54467 19.8334 5.83333C19.8334 7.122 20.878 8.16667 22.1667 8.16667Z" stroke="#8B8890" stroke-width="1.5"/>
<path d="M5.83333 24.5C7.122 24.5 8.16667 23.4554 8.16667 22.1667C8.16667 20.878 7.122 19.8334 5.83333 19.8334C4.54467 19.8334 3.5 20.878 3.5 22.1667C3.5 23.4554 4.54467 24.5 5.83333 24.5Z" stroke="#8B8890" stroke-width="1.5"/>
</svg>
