<svg width="28" height="28" viewBox="0 0 28 28" fill="none" xmlns="http://www.w3.org/2000/svg">
<path d="M14.5154 16.9785L11.8251 20.1287C10.6648 21.4874 10.0846 22.1667 9.33337 22.1667C8.58216 22.1667 8.00196 21.4874 6.84158 20.1287L4.15138 16.9785C2.93938 15.5594 2.33337 14.8498 2.33337 14C2.33337 13.1502 2.93938 12.4407 4.15138 11.0215L6.84158 7.87147C8.00196 6.51274 8.58216 5.83337 9.33337 5.83337C10.0846 5.83337 10.6648 6.51274 11.8251 7.87147L14.5154 11.0215C15.7274 12.4407 16.3334 13.1502 16.3334 14C16.3334 14.8498 15.7274 15.5594 14.5154 16.9785Z" stroke="#8B8890" stroke-width="1.5" stroke-linecap="round" stroke-linejoin="round"/>
<path d="M15.1666 22.1667L19.2637 17.0371C20.4212 15.5879 21 14.8631 21 14C21 13.1369 20.4212 12.4122 19.2637 10.963L15.1666 5.83337" stroke="#8B8890" stroke-width="1.5" stroke-linecap="round" stroke-linejoin="round"/>
<path d="M19.8334 22.1667L23.9305 17.0371C25.0879 15.5879 25.6667 14.8631 25.6667 14C25.6667 13.1369 25.0879 12.4122 23.9305 10.963L19.8334 5.83337" stroke="#8B8890" stroke-width="1.5" stroke-linecap="round" stroke-linejoin="round"/>
</svg>
