<svg width="28" height="28" viewBox="0 0 28 28" fill="none" xmlns="http://www.w3.org/2000/svg">
<path d="M10.0835 3.6699L8.09452 4.58926C5.03151 6.0051 3.5 6.71301 3.5 7.87504C3.5 9.03708 5.03151 9.74498 8.09453 11.1608L10.0835 12.0802C12.0111 12.9712 12.975 13.4167 14 13.4167C15.025 13.4167 15.9889 12.9712 17.9165 12.0802L19.9054 11.1608C22.9685 9.74498 24.5 9.03708 24.5 7.87504C24.5 6.71301 22.9685 6.0051 19.9054 4.58926L17.9165 3.6699C15.9889 2.77888 15.025 2.33337 14 2.33337C12.975 2.33337 12.0111 2.77888 10.0835 3.6699Z" stroke="#8B8890" stroke-width="1.5" stroke-linecap="round" stroke-linejoin="round"/>
<path d="M24.2527 12.9467C24.4175 13.1785 24.5 13.4202 24.5 13.686C24.5 14.8314 22.9685 15.5293 19.9054 16.925L17.9165 17.8313C15.9889 18.7095 15.025 19.1488 14 19.1488C12.975 19.1488 12.0111 18.7095 10.0835 17.8313L8.09453 16.925C5.03151 15.5293 3.5 14.8314 3.5 13.686C3.5 13.4202 3.58245 13.1785 3.74733 12.9467" stroke="#8B8890" stroke-width="1.5" stroke-linecap="round" stroke-linejoin="round"/>
<path d="M23.7728 18.9772C24.2576 19.3633 24.5 19.7482 24.5 20.2039C24.5 21.3495 22.9685 22.0473 19.9054 23.4429L17.9165 24.3492C15.9889 25.2276 15.025 25.6667 14 25.6667C12.975 25.6667 12.0111 25.2276 10.0835 24.3492L8.09453 23.4429C5.03151 22.0473 3.5 21.3495 3.5 20.2039C3.5 19.7482 3.74241 19.3633 4.22723 18.9772" stroke="#8B8890" stroke-width="1.5" stroke-linecap="round" stroke-linejoin="round"/>
</svg>
