<svg width="23" height="23" viewBox="0 0 23 23" fill="none" xmlns="http://www.w3.org/2000/svg">
<path d="M11.25 21.75C15.6246 21.75 17.812 21.75 19.3454 20.6359C19.8406 20.2761 20.2761 19.8406 20.6359 19.3454C21.75 17.812 21.75 15.6246 21.75 11.25C21.75 6.87531 21.75 4.68797 20.6359 3.15458C20.2761 2.65937 19.8406 2.22386 19.3454 1.86406C17.812 0.75 15.6246 0.75 11.25 0.75C6.87531 0.75 4.68797 0.75 3.15458 1.86406C2.65937 2.22386 2.22386 2.65937 1.86406 3.15458C0.75 4.68797 0.75 6.87531 0.75 11.25C0.75 15.6246 0.75 17.812 1.86406 19.3454C2.22386 19.8406 2.65937 20.2761 3.15458 20.6359C4.68797 21.75 6.87531 21.75 11.25 21.75Z" stroke="#8B8890" stroke-width="1.5" stroke-linecap="round" stroke-linejoin="round"/>
</svg>
