<svg width="28" height="28" viewBox="0 0 28 28" fill="none" xmlns="http://www.w3.org/2000/svg">
<path d="M2.91663 14C2.91663 8.77523 2.91663 6.16286 4.53974 4.53974C6.16286 2.91663 8.77523 2.91663 14 2.91663C19.2246 2.91663 21.837 2.91663 23.4602 4.53974C25.0833 6.16286 25.0833 8.77523 25.0833 14C25.0833 19.2246 25.0833 21.837 23.4602 23.4602C21.837 25.0833 19.2246 25.0833 14 25.0833C8.77523 25.0833 6.16286 25.0833 4.53974 23.4602C2.91663 21.837 2.91663 19.2246 2.91663 14Z" stroke="#8B8890" stroke-width="1.5"/>
<path d="M2.91663 10.5H25.0833" stroke="#8B8890" stroke-width="1.5" stroke-linejoin="round"/>
<path d="M8.16638 7H8.17686" stroke="#8B8890" stroke-width="1.5" stroke-linecap="round" stroke-linejoin="round"/>
<path d="M12.833 7H12.8435" stroke="#8B8890" stroke-width="1.5" stroke-linecap="round" stroke-linejoin="round"/>
</svg>
