<svg width="28" height="28" viewBox="0 0 28 28" fill="none" xmlns="http://www.w3.org/2000/svg">
<path d="M14.0001 25.6667C20.4433 25.6667 25.6667 20.4433 25.6667 14C25.6667 7.55672 20.4433 2.33337 14.0001 2.33337C8.77612 2.33337 4.40338 5.76675 2.91675 10.5H5.83341" stroke="#8B8890" stroke-width="1.5" stroke-linecap="round" stroke-linejoin="round"/>
<path d="M14 9.33337V14L16.3333 16.3334" stroke="#8B8890" stroke-width="1.5" stroke-linecap="round" stroke-linejoin="round"/>
<path d="M2.33325 14C2.33325 14.3935 2.35099 14.7827 2.38568 15.1667M10.4999 25.6667C10.1014 25.5355 9.71208 25.3825 9.33325 25.2091M3.74421 19.8333C3.51923 19.3998 3.31854 18.9505 3.14405 18.4872M5.63634 22.5242C5.99297 22.9084 6.37349 23.2681 6.77539 23.6007" stroke="#8B8890" stroke-width="1.5" stroke-linecap="round" stroke-linejoin="round"/>
</svg>
