<svg width="28" height="28" viewBox="0 0 28 28" fill="none" xmlns="http://www.w3.org/2000/svg">
<path d="M2.91675 14C2.91675 8.77523 2.91675 6.16286 4.53986 4.53974C6.16299 2.91663 8.77535 2.91663 14.0001 2.91663C19.2248 2.91663 21.8372 2.91663 23.4603 4.53974C25.0834 6.16286 25.0834 8.77523 25.0834 14C25.0834 19.2246 25.0834 21.837 23.4603 23.4602C21.8372 25.0833 19.2248 25.0833 14.0001 25.0833C8.77535 25.0833 6.16299 25.0833 4.53986 23.4602C2.91675 21.837 2.91675 19.2246 2.91675 14Z" stroke="#8B8890" stroke-width="1.5"/>
<path d="M2.91675 14H25.0834" stroke="#8B8890" stroke-width="1.5" stroke-linecap="round" stroke-linejoin="round"/>
<path d="M15.1667 8.16663H19.8334" stroke="#8B8890" stroke-width="1.5" stroke-linecap="round" stroke-linejoin="round"/>
<path d="M9.62508 9.62504C10.4305 9.62504 11.0834 8.97212 11.0834 8.16671C11.0834 7.36129 10.4305 6.70837 9.62508 6.70837C8.81967 6.70837 8.16675 7.36129 8.16675 8.16671C8.16675 8.97212 8.81967 9.62504 9.62508 9.62504Z" stroke="#8B8890" stroke-width="1.5" stroke-linecap="round" stroke-linejoin="round"/>
<path d="M9.62508 21.2917C10.4305 21.2917 11.0834 20.6387 11.0834 19.8333C11.0834 19.0279 10.4305 18.375 9.62508 18.375C8.81967 18.375 8.16675 19.0279 8.16675 19.8333C8.16675 20.6387 8.81967 21.2917 9.62508 21.2917Z" stroke="#8B8890" stroke-width="1.5" stroke-linecap="round" stroke-linejoin="round"/>
<path d="M15.1667 19.8334H19.8334" stroke="#8B8890" stroke-width="1.5" stroke-linecap="round" stroke-linejoin="round"/>
</svg>
