<svg width="28" height="28" viewBox="0 0 28 28" fill="none" xmlns="http://www.w3.org/2000/svg">
<path d="M16.3372 24.5H14.0032C8.502 24.5 5.75139 24.5 4.04239 22.7914C2.33337 21.0829 2.33337 18.333 2.33337 12.8333V9.26831C2.33337 7.1491 2.33337 6.08949 2.7772 5.2944C3.09357 4.72765 3.56135 4.25999 4.12827 3.94371C4.92357 3.5 5.98347 3.5 8.10326 3.5C9.46133 3.5 10.1404 3.5 10.7348 3.72284C12.092 4.23164 12.6516 5.46418 13.264 6.68865L14.0032 8.16667M9.33528 8.16667H19.5464C22.0049 8.16667 23.2341 8.16667 24.1171 8.75652C24.4995 9.01188 24.8276 9.34001 25.083 9.72217C25.5427 10.41 25.6443 11.3078 25.6667 12.8333" stroke="#8B8890" stroke-width="1.5" stroke-linecap="round"/>
<path d="M25.6667 19.3905V17.0908C25.6667 16.7292 25.401 16.429 25.0565 16.3674C23.668 16.1191 22.5155 15.5669 21.9532 15.2607C21.723 15.1353 21.4437 15.1353 21.2135 15.2607C20.6512 15.5669 19.4986 16.1191 18.1102 16.3674C17.7656 16.429 17.5 16.7292 17.5 17.0908V19.3905C17.5 22.3904 20.4661 24.0268 21.3424 24.4447C21.497 24.5184 21.6697 24.5184 21.8242 24.4447C22.7005 24.0268 25.6667 22.3904 25.6667 19.3905Z" stroke="#8B8890" stroke-width="1.5" stroke-linecap="round"/>
</svg>
